{"title":"The.Gunman.2015.1080p.WEB-DL.DD5.1.H264-FGT","uid":12035094,"size":4426236078,"categoryP":"video","categoryS":"hd___movies","magnet":"?xt=urn:btih:38f87246451e8f036837610b3d1a8da52ae6286e&amp;dn=The.Gunman.2015.1080p.WEB-DL.DD5.1.H264-FGT&amp;tr=udp%3A%2F%2Ftracker.openbittorrent.com%3A80&amp;tr=udp%3A%2F%2Fopen.demonii.com%3A1337&amp;tr=udp%3A%2F%2Ftracker.coppersurfer.tk%3A6969&amp;tr=udp%3A%2F%2Fexodus.desync.com%3A6969","seeders":0,"leechers":1,"uploader":"vickey1992","files":4,"time":1434674080,"description":"Video\nID                                       : 1\nFormat                                   : AVC\nFormat/Info                              : Advanced Video Codec\nFormat profile                           : High@L4\nFormat settings, CABAC                   : Yes\nFormat settings, ReFrames                : 5 frames\nCodec ID                                 : V_MPEG4/ISO/AVC\nDuration                                 : 1h 55mn\nBit rate                                 : 4 620 Kbps\nWidth                                    : 1 916 pixels\nHeight                                   : 796 pixels\nDisplay aspect ratio                     : 2.40:1\nFrame rate mode                          : Constant\nFrame rate                               : 23.976 fps\nColor space                              : YUV\nChroma subsampling                       : 4:2:0\nBit depth                                : 8 bits\nScan type                                : Progressive\nBits/(Pixel*Frame)                       : 0.126\nStream size                              : 3.73 GiB (90%)\nTitle                                    : The.Gunman.2015.1080p.WEB-DL.DD5.1.H264-FGT\nLanguage                                 : English\nDefault                                  : Yes\nForced                                   : No\nColor range                              : Limited\nColor primaries                          : BT.709\nTransfer characteristics                 : BT.709\nMatrix coefficients                      : BT.709\n\nAudio\nID                                       : 2\nFormat                                   : AC-3\nFormat/Info                              : Audio Coding 3\nMode extension                           : CM (complete main)\nFormat settings, Endianness              : Big\nCodec ID                                 : A_AC3\nDuration                                 : 1h 55mn\nBit rate mode                            : Constant\nBit rate                                 : 384 Kbps\nChannel(s)                               : 6 channels\nChannel positions                        : Front: L C R, Side: L R, LFE\nSampling rate                            : 48.0 KHz\nBit depth                                : 16 bits\nCompression mode                         : Lossy\nStream size                              : 317 MiB (8%)\nTitle                                    : The.Gunman.2015.1080p.WEB-DL.DD5.1.H264-FGT\nLanguage                                 : English\nDefault                                  : Yes\nForced                                   : No\n\nText\nID                                       : 3\nFormat                                   : UTF-8\nCodec ID                                 : S_TEXT/UTF8\nCodec ID/Info                            : UTF-8 Plain Text\nLanguage                                 : English\nDefault                                  : Yes\nForced                                   : No\n\nMenu\n00:00:00.000                             : en:1\n00:04:50.000                             : en:2\n00:10:31.000                             : en:3\n00:14:22.000                             : en:4\n00:18:03.000                             : en:5\n00:23:19.000                             : en:6\n00:27:55.000                             : en:7\n00:34:16.000                             : en:8\n00:39:53.000                             : en:9\n00:45:53.000                             : en:10\n00:50:21.000                             : en:11\n00:58:12.000                             : en:12\n01:04:39.000                             : en:13\n01:08:29.000                             : en:14\n01:14:46.000                             : en:15\n01:21:39.000                             : en:16\n01:31:20.000                             : en:17\n01:38:41.000                             : en:18\n01:45:36.000                             : en:19\n01:49:17.000                             : en:20","torrent":{"xt":"urn:btih:38f87246451e8f036837610b3d1a8da52ae6286e","amp;dn":"The.Gunman.2015.1080p.WEB-DL.DD5.1.H264-FGT","amp;tr":["udp%3A%2F%2Ftracker.openbittorrent.com%3A80","udp%3A%2F%2Fopen.demonii.com%3A1337","udp%3A%2F%2Ftracker.coppersurfer.tk%3A6969","udp%3A%2F%2Fexodus.desync.com%3A6969"],"infoHash":"38f87246451e8f036837610b3d1a8da52ae6286e","infoHashBuffer":{"type":"Buffer","data":[56,248,114,70,69,30,143,3,104,55,97,11,61,26,141,165,42,230,40,110]},"announce":[],"urlList":[]}}